<?xml version="1.0" standalone="no"?>
<!DOCTYPE svg PUBLIC "-//W3C//DTD SVG 20010904//EN"
 "http://www.w3.org/TR/2001/REC-SVG-20010904/DTD/svg10.dtd">
<svg version="1.0" xmlns="http://www.w3.org/2000/svg"
 width="503.000000pt" height="418.000000pt" viewBox="0 0 503.000000 418.000000"
 preserveAspectRatio="xMidYMid meet">

<g transform="translate(0.000000,418.000000) scale(0.100000,-0.100000)"
fill="#000000" stroke="none">
<path d="M4572 3717 l-372 -372 2 -1640 3 -1640 373 -3 372 -2 0 2015 c0 1108
-1 2015 -3 2015 -1 0 -170 -168 -375 -373z"/>
<path d="M3552 2532 l-372 -367 2 -1050 3 -1050 373 -3 372 -2 0 1420 c0 781
-1 1420 -2 1420 -2 -1 -171 -166 -376 -368z"/>
<path d="M2535 1680 l-369 -369 0 -621 -1 -620 373 0 372 0 0 990 c0 545 -1
990 -3 990 -1 0 -168 -166 -372 -370z"/>
</g>
</svg>
