<?xml version="1.0" standalone="no"?>
<!DOCTYPE svg PUBLIC "-//W3C//DTD SVG 20010904//EN"
 "http://www.w3.org/TR/2001/REC-SVG-20010904/DTD/svg10.dtd">
<svg version="1.0" xmlns="http://www.w3.org/2000/svg"
 width="273.000000pt" height="309.000000pt" viewBox="0 0 273.000000 309.000000"
 preserveAspectRatio="xMidYMid meet">

<g transform="translate(0.000000,309.000000) scale(0.100000,-0.100000)"
fill="#000000" stroke="none">
<path d="M1395 2279 l-690 -800 -3 490 -2 491 -345 0 -345 0 0 -1225 0 -1225
173 0 172 0 245 337 c144 199 630 826 1182 1527 516 654 936 1191 935 1192 -1
1 -144 4 -317 8 l-315 6 -690 -801z"/>
<path d="M1101 814 c-101 -130 -179 -239 -175 -244 5 -4 170 -132 368 -284
l358 -276 526 0 c293 0 522 4 517 9 -22 19 -1390 1024 -1400 1027 -5 2 -93
-102 -194 -232z"/>
</g>
</svg>
